<svg width="153" height="51" viewBox="0 0 153 51" fill="none" xmlns="http://www.w3.org/2000/svg">
<path fill-rule="evenodd" clip-rule="evenodd" d="M124.174 18.8217C124.174 18.8217 123.885 18.5138 123.373 18.3514C122.878 18.1942 121.998 17.9336 120.746 18.3308C119.036 18.8731 118.46 21.0373 117.046 25.0543C115.632 29.0714 113.438 35.4189 113.438 35.4189L120.57 35.4189L124.174 18.8217Z" fill="#EFA7B4"/>
<path fill-rule="evenodd" clip-rule="evenodd" d="M131.483 18.8217C131.483 18.8217 131.772 18.5138 132.283 18.3514C132.778 18.1942 133.659 17.9336 134.91 18.3308C136.62 18.8731 137.197 21.0373 138.611 25.0543C139.511 27.6132 140.729 31.1178 141.494 33.3248C141.93 34.5825 142.219 35.4189 142.219 35.4189L135.087 35.4189L131.483 18.8217Z" fill="#EFA7B4"/>
<path fill-rule="evenodd" clip-rule="evenodd" d="M132.052 35.4191L123.594 35.4191C123.594 35.4191 125.373 24.1012 125.818 21.171C125.973 20.1459 126.365 18.6377 127.823 18.6377C129.28 18.6377 129.679 20.1893 129.835 21.2144C130.279 24.1446 132.052 35.4191 132.052 35.4191Z" fill="#EFA7B4"/>
<path d="M10.4922 19.404H14.3984V22.5177C15.0495 21.377 15.9175 20.5138 17.0026 19.9281C18.0567 19.3732 19.2038 19.0957 20.4128 19.0957V23.1959C19.6998 23.1651 19.0178 23.2575 18.3047 23.4733C17.5917 23.6891 16.9716 24.0282 16.4136 24.429C15.8245 24.8298 15.3595 25.3539 15.0185 25.9704C14.6465 26.6178 14.4294 27.3269 14.3984 28.1592V35.4964H10.4922V19.404Z" fill="#3A531D"/>
<path d="M24.7262 28.3463C24.8916 29.4564 25.3619 30.3814 26.1372 31.1215C26.9124 31.8615 27.9202 32.2315 29.1606 32.2315C29.9668 32.2315 30.6852 32.0517 31.3157 31.692C31.9462 31.3322 32.4061 30.885 32.6955 30.3506H37.0679C36.6131 31.9951 35.6879 33.3109 34.2926 34.2976C32.8972 35.2843 31.1761 35.7776 29.1295 35.7776C27.9305 35.7776 26.8142 35.5669 25.7805 35.1455C24.7469 34.7241 23.8476 34.1382 23.0827 33.3879C22.3179 32.6376 21.7235 31.7536 21.2997 30.7361C20.8759 29.7185 20.6641 28.6238 20.6641 27.4521C20.6641 26.2598 20.8708 25.1548 21.2842 24.1373C21.6977 23.1197 22.2765 22.2358 23.0207 21.4853C23.7649 20.735 24.6487 20.1492 25.672 19.7278C26.6953 19.3063 27.8065 19.0957 29.0055 19.0957C30.1425 19.0957 31.202 19.2652 32.184 19.6044C33.1659 19.9436 34.0238 20.4164 34.7577 21.0228C35.4916 21.6292 36.0859 22.3642 36.5407 23.2276C36.9955 24.091 37.2746 25.0468 37.378 26.0954C37.4193 26.527 37.44 26.9124 37.44 27.2516C37.44 27.5908 37.4297 27.9557 37.409 28.3463H24.7262ZM33.1607 25.972C33.0366 24.9852 32.5974 24.1835 31.8429 23.5668C31.0883 22.9501 30.1528 22.6417 29.0365 22.6417C27.9202 22.6417 26.9951 22.9501 26.2612 23.5668C25.5273 24.1835 25.0466 24.9852 24.8192 25.972H33.1607Z" fill="#3A531D"/>
<path d="M56.1701 27.4526C56.1701 28.6243 55.9788 29.719 55.5964 30.7365C55.2139 31.7541 54.6712 32.638 53.9684 33.3883C53.2655 34.1387 52.4335 34.7245 51.4722 35.1459C50.5108 35.5673 49.4514 35.7781 48.2938 35.7781C47.0533 35.7781 46.03 35.5673 45.2238 35.1459C44.4176 34.7245 43.7561 34.1439 43.2393 33.4038V35.5006H39.332V14.8408H43.2393V21.5013C43.7561 20.7407 44.4176 20.1496 45.2238 19.7282C46.03 19.3068 47.0533 19.0962 48.2938 19.0962C49.4514 19.0962 50.5108 19.3068 51.4722 19.7282C52.4335 20.1496 53.2604 20.7355 53.9529 21.4858C54.6455 22.2363 55.1882 23.1202 55.5809 24.1377C55.9737 25.1553 56.1701 26.2603 56.1701 27.4526ZM43.2393 26.62V28.3159C43.3219 28.8299 43.4821 29.3079 43.7198 29.7498C43.9576 30.1918 44.2678 30.5772 44.6502 30.9061C45.0326 31.235 45.4771 31.4919 45.9836 31.6769C46.4901 31.862 47.043 31.9545 47.6425 31.9545C48.3248 31.9545 48.9397 31.8311 49.4876 31.5844C50.0354 31.3378 50.5057 31.0089 50.8985 30.5977C51.2913 30.1866 51.591 29.7138 51.7978 29.1793C52.0045 28.6448 52.1078 28.0795 52.1078 27.4834C52.1078 26.8667 52.0045 26.2808 51.7978 25.7258C51.591 25.1706 51.2964 24.6876 50.914 24.2764C50.5315 23.8653 50.0613 23.5364 49.5031 23.2897C48.945 23.043 48.3248 22.9197 47.6425 22.9197C47.043 22.9197 46.4901 23.0174 45.9836 23.2127C45.4771 23.408 45.0326 23.67 44.6502 23.9989C44.2678 24.3278 43.9576 24.7184 43.7198 25.1706C43.4821 25.623 43.3219 26.1061 43.2393 26.62Z" fill="#3A531D"/>
<path d="M74.5372 35.5001H70.6301V33.3725C70.1338 34.1331 69.4723 34.7241 68.6454 35.1455C67.8185 35.5669 66.7849 35.7776 65.5445 35.7776C64.4075 35.7776 63.3584 35.5669 62.3971 35.1455C61.4358 34.7241 60.6037 34.1382 59.9008 33.3879C59.198 32.6376 58.6553 31.7536 58.2728 30.7361C57.8904 29.7185 57.6992 28.6238 57.6992 27.4521C57.6992 26.2598 57.8904 25.1548 58.2728 24.1373C58.6553 23.1197 59.198 22.2358 59.9008 21.4853C60.6037 20.735 61.4358 20.1492 62.3971 19.7278C63.3584 19.3063 64.4179 19.0957 65.5755 19.0957C66.8159 19.0957 67.8444 19.3063 68.661 19.7278C69.4775 20.1492 70.1338 20.7402 70.6301 21.5008V19.4041H74.5372V35.5001ZM70.6301 26.7121C70.4854 25.6431 70.0201 24.7437 69.2346 24.0139C68.449 23.2842 67.4464 22.9192 66.2267 22.9192C65.5445 22.9192 64.9244 23.0426 64.3662 23.2892C63.808 23.5359 63.3377 23.8648 62.9552 24.276C62.5728 24.6871 62.2782 25.1702 62.0714 25.7253C61.8647 26.2804 61.7614 26.8662 61.7614 27.4829C61.7614 28.0791 61.8647 28.6444 62.0714 29.1788C62.2782 29.7133 62.5728 30.1861 62.9552 30.5973C63.3377 31.0084 63.808 31.3373 64.3662 31.584C64.9244 31.8306 65.5445 31.954 66.2267 31.954C66.8262 31.954 67.3844 31.8564 67.9012 31.6611C68.418 31.4658 68.8677 31.1986 69.2501 30.8594C69.6326 30.5202 69.9427 30.1194 70.1804 29.6569C70.4181 29.1943 70.5681 28.706 70.6301 28.1921V26.7121Z" fill="#3A531D"/>
<path d="M77.1406 14.8408H81.0478V25.4175H82.5673L86.5985 19.4045H91.4669L86.1954 27.2676L92.1802 35.5006H87.0947L82.6603 29.0868H81.0478V35.5006H77.1406V14.8408Z" fill="#3A531D"/>
<path d="M94.9879 28.3463C95.1533 29.4564 95.6237 30.3814 96.3989 31.1215C97.1741 31.8615 98.1819 32.2315 99.4223 32.2315C100.229 32.2315 100.947 32.0517 101.577 31.692C102.208 31.3322 102.668 30.885 102.957 30.3506H107.33C106.875 31.9951 105.95 33.3109 104.554 34.2976C103.159 35.2843 101.438 35.7776 99.3913 35.7776C98.1923 35.7776 97.0758 35.5669 96.0422 35.1455C95.0086 34.7241 94.1093 34.1382 93.3445 33.3879C92.5796 32.6376 91.9852 31.7536 91.5614 30.7361C91.1376 29.7185 90.9258 28.6238 90.9258 27.4521C90.9258 26.2598 91.1325 25.1548 91.546 24.1373C91.9594 23.1197 92.5382 22.2358 93.2824 21.4853C94.0266 20.735 94.9105 20.1492 95.9337 19.7278C96.957 19.3063 98.0682 19.0957 99.2672 19.0957C100.404 19.0957 101.464 19.2652 102.446 19.6044C103.428 19.9436 104.286 20.4164 105.019 21.0228C105.753 21.6292 106.348 22.3642 106.802 23.2276C107.257 24.091 107.536 25.0468 107.64 26.0954C107.681 26.527 107.702 26.9124 107.702 27.2516C107.702 27.5908 107.691 27.9557 107.671 28.3463H94.9879ZM103.422 25.972C103.298 24.9852 102.859 24.1835 102.105 23.5668C101.35 22.9501 100.415 22.6417 99.2982 22.6417C98.1819 22.6417 97.2568 22.9501 96.5229 23.5668C95.789 24.1835 95.3083 24.9852 95.0809 25.972H103.422Z" fill="#3A531D"/>
</svg>
