<svg width="31" height="27" viewBox="0 0 31 27" fill="none" xmlns="http://www.w3.org/2000/svg">
<path d="M6.43578 7.72328C6.51292 7.60329 6.59007 7.50472 6.65435 7.42972C6.69292 7.38472 6.72292 7.35472 6.74649 7.33115C7.3679 6.68189 7.3679 6.68189 7.88431 6.11405C8.37286 5.57621 9.37997 4.46411 11.9106 1.70849C11.4242 1.42778 10.2607 0.847091 8.73713 0.679954C8.44786 0.647812 8.15644 0.632812 7.87573 0.632812C6.06937 0.632812 4.42371 1.28422 2.9859 2.57203C2.7352 2.79702 2.49092 3.03916 2.2595 3.29629C2.03451 3.54485 1.82237 3.81056 1.62738 4.08269C0.727411 5.3405 0.183143 6.82546 0.00957775 8.48826C0.00743497 8.5054 -0.0825611 10.3825 0.335282 11.8974C0.585987 12.8081 0.870977 13.5045 1.22882 14.0916C2.42664 16.0523 3.97801 17.2608 5.85295 17.7044C4.96369 16.3908 4.443 14.8052 4.443 13.0974C4.44085 11.0425 5.19297 9.16538 6.43578 7.72328Z" fill="url(#paint0_linear_6726_11629)"/>
<path d="M22.5371 7.17969C23.2443 7.35968 23.8828 8.0218 24.0199 8.75892C24.3071 10.2867 23.0793 11.7031 22.94 11.8595L20.8079 14.2295L17.6816 17.705L14.6453 21.0778L11.5918 24.472C12.1082 24.8234 12.6353 25.1726 13.1453 25.5133C13.6103 25.824 14.0924 26.1433 14.5638 26.4626C14.7031 26.5569 14.8638 26.6062 15.031 26.6062C15.1852 26.6062 15.3374 26.5633 15.4681 26.4819C16.6016 25.7812 17.6837 25.0719 18.6823 24.3691C20.0301 23.4199 21.2408 22.4835 22.3829 21.5042C22.9378 21.0285 23.4907 20.5271 24.0264 20.015C24.6199 19.4471 25.1878 18.8686 25.7235 18.2879C25.8435 18.1572 25.9613 18.0265 26.0792 17.8979C26.6599 17.2465 27.1677 16.6122 27.6241 15.9672C28.0012 15.168 28.2112 14.2766 28.2112 13.3359C28.2134 10.0917 25.7127 7.43254 22.5371 7.17969Z" fill="url(#paint1_linear_6726_11629)"/>
<path d="M28.8797 4.72347C28.2968 3.72064 27.5233 2.8421 26.6383 2.18212C26.5162 2.08998 26.3855 1.99785 26.2483 1.90999C24.9348 1.04645 23.437 0.587891 21.9135 0.587891C20.1821 0.587891 18.5429 1.20501 17.3022 2.32355C17.0086 2.58711 15.9244 3.78064 14.7244 5.12417C12.9159 7.14481 10.8439 9.50615 10.8053 9.54901L9.56461 10.8732C9.56247 10.8754 9.55818 10.8797 9.55604 10.8818C9.20463 11.2225 8.72464 11.4111 8.20394 11.4111C7.62539 11.4111 7.04898 11.1754 6.70185 10.794C6.37401 10.434 5.99473 9.78258 6.01188 9.13117C6.02687 8.50977 6.23687 8.03621 6.43829 7.72122C5.19548 9.16331 4.44336 11.0404 4.44336 13.0932C4.44336 14.7988 4.96406 16.3845 5.85331 17.7002C6.39115 17.8266 6.95684 17.8909 7.54825 17.8909C7.64253 17.8909 7.73467 17.8887 7.82896 17.8866C10.1967 17.8052 12.4531 16.7595 14.0173 15.0217L15.8923 12.9389L19.6614 8.7519L19.7771 8.62332C20.5892 7.62479 21.2064 7.28409 21.6585 7.17481C21.8149 7.13624 21.952 7.12766 22.0699 7.12766C22.1599 7.12766 22.2435 7.13409 22.3099 7.14052C22.3892 7.14909 22.4685 7.16195 22.5477 7.18338C25.7255 7.43623 28.224 10.0954 28.224 13.3374C28.224 14.2781 28.0118 15.1717 27.6369 15.9688C27.714 15.8617 27.789 15.7524 27.8618 15.6431C28.0333 15.3902 28.1875 15.1502 28.3311 14.9124C28.779 14.1731 29.1604 13.4167 29.4625 12.6646C29.5718 12.3903 29.6725 12.1011 29.7561 11.8075C30.4418 9.44616 30.1225 6.86411 28.8797 4.72347Z" fill="url(#paint2_linear_6726_11629)"/>
<defs>
<linearGradient id="paint0_linear_6726_11629" x1="1.98805" y1="13.5459" x2="17.832" y2="-10.5529" gradientUnits="userSpaceOnUse">
<stop stop-color="#099838"/>
<stop offset="0.3081" stop-color="#5DBB7C"/>
<stop offset="0.6459" stop-color="#B4DFC2"/>
<stop offset="0.8846" stop-color="#EAF6EE"/>
<stop offset="1" stop-color="white"/>
</linearGradient>
<linearGradient id="paint1_linear_6726_11629" x1="12.2492" y1="24.9717" x2="35.0165" y2="1.53869" gradientUnits="userSpaceOnUse">
<stop stop-color="#099838"/>
<stop offset="0.3081" stop-color="#5DBB7C"/>
<stop offset="0.6459" stop-color="#B4DFC2"/>
<stop offset="0.8846" stop-color="#EAF6EE"/>
<stop offset="1" stop-color="white"/>
</linearGradient>
<linearGradient id="paint2_linear_6726_11629" x1="24.5078" y1="5.77679" x2="2.53931" y2="23.6178" gradientUnits="userSpaceOnUse">
<stop stop-color="#099838"/>
<stop offset="0.3081" stop-color="#5DBB7C"/>
<stop offset="0.6459" stop-color="#B4DFC2"/>
<stop offset="0.8846" stop-color="#EAF6EE"/>
<stop offset="1" stop-color="white"/>
</linearGradient>
</defs>
</svg>
